<svg xmlns="http://www.w3.org/2000/svg" width="20" height="16" fill="none" viewBox="0 0 20 16">
  <path fill="#000" d="M0 .688v15h20v-15H0Zm1.538 1.5h16.924v12h-2.62c-.06-.103-.034-.244-.121-.329-.29-.284-.703-.421-1.106-.421-.402 0-.814.137-1.106.422-.087.085-.06.225-.12.328H6.611c-.06-.103-.033-.244-.12-.329-.293-.284-.704-.421-1.106-.421-.403 0-.815.137-1.107.422-.086.085-.06.225-.12.328h-2.62v-12Zm5.385 1.5c-1.692 0-3.077 1.35-3.077 3 0 .834.367 1.587.938 2.132a3.816 3.816 0 0 0-1.25 1.353 3.706 3.706 0 0 0-.457 1.764h1.538c0-.596.244-1.168.676-1.59a2.338 2.338 0 0 1 1.632-.66c.612 0 1.2.238 1.632.66.433.421.676.994.676 1.59h1.538a3.705 3.705 0 0 0-.457-1.764 3.816 3.816 0 0 0-1.25-1.353c.571-.545.938-1.297.938-2.133 0-1.65-1.385-3-3.077-3Zm0 1.5c.86 0 1.539.662 1.539 1.5 0 .837-.68 1.5-1.539 1.5-.86 0-1.538-.663-1.538-1.5 0-.838.679-1.5 1.538-1.5Zm5.385.75v1.5h4.615v-1.5h-4.615Zm0 3v1.5h4.615v-1.5h-4.615Z"/>
</svg>
