<svg xmlns="http://www.w3.org/2000/svg" width="90" height="90" fill="none" viewBox="0 0 90 90">
  <path fill="#22262A" fill-rule="evenodd" d="M89.336 75.054a45.489 45.489 0 0 0-9.802-15.551A45.446 45.446 0 0 0 64.38 49.106a27.453 27.453 0 0 0 10.022-20.981A28.485 28.485 0 0 0 66.78 9.178 28.443 28.443 0 0 0 48.441.214a28.08 28.08 0 0 0-6.914 0 28.443 28.443 0 0 0-18.324 8.97 28.485 28.485 0 0 0-7.615 18.94A27.455 27.455 0 0 0 25.61 49.107a45.44 45.44 0 0 0-15.157 10.395A45.484 45.484 0 0 0 .65 75.055 10.864 10.864 0 0 0 2.173 85.27a11.945 11.945 0 0 0 9.6 4.73h66.486a11.92 11.92 0 0 0 9.589-4.73 10.827 10.827 0 0 0 1.489-10.215Zm-61.984-46.93a17.13 17.13 0 0 1 4.671-11.447 17.103 17.103 0 0 1 11.157-5.315c1.211-.15 2.436-.15 3.648 0a16.907 16.907 0 0 1 8.613 4.027 16.926 16.926 0 0 1 5.026 17.555 16.927 16.927 0 0 1-5.175 7.981 16.906 16.906 0 0 1-25.25-3.675 16.935 16.935 0 0 1-2.69-9.125ZM11.761 78.75a35.843 35.843 0 0 1 13.178-16.345 35.8 35.8 0 0 1 40.13 0A35.843 35.843 0 0 1 78.246 78.75H11.76Z" clip-rule="evenodd"/>
</svg>
