<svg id="Layer_1" data-name="Layer 1" xmlns="http://www.w3.org/2000/svg" xmlns:xlink="http://www.w3.org/1999/xlink" viewBox="0 0 3000 2000"><defs><style>.cls-1{fill:#e3eefe;}.cls-2{fill:#ffb6a6;}.cls-27,.cls-3{fill:#3875ff;}.cls-4{fill:#739bfd;}.cls-5{fill:#f85c3d;}.cls-6{fill:#38385c;}.cls-7{fill:#fff;}.cls-8{clip-path:url(#clip-path);}.cls-10,.cls-9{fill:#a4c4ff;}.cls-9{opacity:0.36;}.cls-11{fill:#504f79;}.cls-12{fill:#38385d;}.cls-13{fill:#eecd76;}.cls-14{fill:#1a1a35;}.cls-15{clip-path:url(#clip-path-2);}.cls-16{fill:#ff8370;}.cls-17{clip-path:url(#clip-path-3);}.cls-18{clip-path:url(#clip-path-4);}.cls-19{fill:#df4930;}.cls-20{clip-path:url(#clip-path-5);}.cls-21{clip-path:url(#clip-path-6);}.cls-22{clip-path:url(#clip-path-7);}.cls-23{clip-path:url(#clip-path-8);}.cls-24{clip-path:url(#clip-path-9);}.cls-25{clip-path:url(#clip-path-10);}.cls-26{clip-path:url(#clip-path-11);}.cls-27{opacity:0.55;}.cls-28{clip-path:url(#clip-path-12);}.cls-29{clip-path:url(#clip-path-13);}.cls-30{clip-path:url(#clip-path-14);}.cls-31{clip-path:url(#clip-path-15);}.cls-32{font-size:108px;font-family:MicrosoftSansSerif, Microsoft Sans Serif;}</style><clipPath id="clip-path"><path class="cls-1" d="M2704.85,1781.73H280.31l-33-692.32a310.19,310.19,0,0,1,78.92-221.75C408.39,776,536.13,621.36,645.9,506.36a402.16,402.16,0,0,1,361-118.44L2265.44,610.58c209.6,34.14,351.7,103.09,449.31,253.52a297.28,297.28,0,0,1,61.93,214.09Z"/></clipPath><clipPath id="clip-path-2"><path class="cls-2" d="M2375.93,1148c-26.09,3.52-134.9-23.36-161.9-29l-4.58,24c31.09,12.11,132.5,54.71,164.72,56.48Z"/></clipPath><clipPath id="clip-path-3"><path class="cls-5" d="M2646.64,1221l-88.94-68.65c-.83-.68-1.68-1.32-2.54-2h0c-13.39-10.64-32.24-13.32-49.47-12.59-14.87,4.54-112.17,4.37-129.55,4l-2.4,70,67.64,7.47,14.48,144h153.66l-21.1-110.3Z"/></clipPath><clipPath id="clip-path-4"><path class="cls-2" d="M2461.44,1137.82c13.33,42.82,79.45,54.61,96.72,5.57l-45.34-9.67Z"/></clipPath><clipPath id="clip-path-5"><path class="cls-2" d="M2459.33,1054.06l-16,49a14.91,14.91,0,0,0,12.14,19.39l25.36,3.5,5.17,34.6,39.3-2.33-25.52-104.14Z"/></clipPath><clipPath id="clip-path-6"><path class="cls-2" d="M2432.44,1729.21v15.61s5,15.29,16,15.29,11.51-3.41,11.51-3.41l2.51-27.49Z"/></clipPath><clipPath id="clip-path-7"><path class="cls-2" d="M2591.81,1729.21c5,7.46,9.78,30.8,23.55,30.9,11.06,0,11.52-3.41,11.52-3.41l-5-27.49Z"/></clipPath><clipPath id="clip-path-8"><path class="cls-5" d="M809.46,1203.18l-97.39-42.56h0a65.24,65.24,0,0,0-27.81-6.21c-30.29-2.1-63.85,1.73-80.5,29.67h0l-65.51,84.62,50.22,35.7-5,91.75H761l-8.7-135.76,32,11.83Z"/></clipPath><clipPath id="clip-path-9"><path class="cls-6" d="M794.62,1539.1l-52.2-143h5.78l-21.25-236L708.3,1156l.3,76.35-72.72-2.4-3.47-73.13-18.74,5-18,234.33h0L489,1569.69l-60.7,162.63H483.6l82.87-125.79,107.45-117.09,31.28,59.89-37,183H732C733.3,1721.11,807.08,1545.58,794.62,1539.1Z"/></clipPath><clipPath id="clip-path-10"><path class="cls-3" d="M1124.92,1121.75,688.5,971.7a55,55,0,0,1-34.14-69.91l145-421.64A55,55,0,0,1,869.3,446l436.43,150.06a55,55,0,0,1,34.14,69.9l-145,421.64A55,55,0,0,1,1124.92,1121.75Z"/></clipPath><clipPath id="clip-path-11"><path class="cls-4" d="M974.79,758.82l50.61,17.41,154.23-157.69a15.05,15.05,0,0,0-7.75-25.27C956.29,544.41,978.48,549.73,974.79,758.82Zm24.84,27.3L841.92,631.92a15.05,15.05,0,0,0-25.27,7.75C767.78,855.22,773.1,833,982.23,836.73Zm60.52,43.17-50.62-17.4L855.3,969.57a15.05,15.05,0,0,0,7.75,25.27C1078.64,1043.7,1056.45,1038.38,1060.15,829.29Zm158.13,119.15c48.92-215.69,43.42-193.32-165.58-197.06L1035.3,802,1193,956.19A15.05,15.05,0,0,0,1218.28,948.44Z"/></clipPath><clipPath id="clip-path-12"><path class="cls-2" d="M702.4,1412.68s14.31-5.77,14.31-7.55-30.9-2.34-30.9-2.34C657.68,1374,577.11,1289.15,542,1271.34l-9.39,13.85c-13.18,18.61-7.26,46.61,12.35,58.27,17.57,9.72,129.55,84.91,147.88,86.36,5.85,1.52,36.49-7.9,36.49-7.9Z"/></clipPath><clipPath id="clip-path-13"><path class="cls-2" d="M711.45,1084.87c-1.3,0-2.51,1-3.51,2.69-7.86-49.24-67.16-49.21-75,0-5.45-7.69-9.68,2.53-9.69,12.32-.14,10.61,5.25,20.95,10.35,11,3.07,13.12,10.57,23.91,20.36,29.7v21.23h33.58v-21.62c9.48-5.87,16.73-16.46,19.74-29.29C717.82,1128,721.63,1084.69,711.45,1084.87Z"/></clipPath><clipPath id="clip-path-14"><path class="cls-2" d="M444.83,1732.32l-4.29,12.5s5,15.29,16,15.29,11.51-3.41,11.51-3.41l10.19-24.38Z"/></clipPath><clipPath id="clip-path-15"><path class="cls-2" d="M707.49,1732.32c-4.24,7.4-5.83,26.13-21.07,27.79-11,0-11.51-3.41-11.51-3.41l3.38-24.38Z"/></clipPath></defs><rect class="cls-7" x="0.5" y="0.5" width="2999" height="1999"/><path d="M3000,2000H0V0H3000ZM1,1999H2999V1H1Z"/><path class="cls-1" d="M2704.85,1781.73H280.31l-33-692.32a310.19,310.19,0,0,1,78.92-221.75C408.39,776,536.13,621.36,645.9,506.36a402.16,402.16,0,0,1,361-118.44L2265.44,610.58c209.6,34.14,351.7,103.09,449.31,253.52a297.28,297.28,0,0,1,61.93,214.09Z"/><g class="cls-8"><polygon class="cls-9" points="243.81 1439.28 521.81 1439.28 521.81 1107.29 955.57 1107.29 955.57 1385.93 1528.07 1385.93 1528.07 1841.89 261.39 1841.89 243.81 1439.28"/><polyline class="cls-10" points="1409.58 1781.42 1409.58 1090.99 1242.46 1090.99 1242.46 1568.33 1156.12 1568.33 1156.12 1781.73 1409.58 1781.73"/><polygon class="cls-9" points="2744.71 1451.14 2354.24 1451.14 2354.24 1271.34 2174.91 1271.34 2174.91 1808.17 2855.4 1808.17 2744.71 1451.14"/></g><rect class="cls-11" x="1321.98" y="1072.49" width="311.96" height="546.23"/><rect class="cls-12" x="1633.94" y="1072.49" width="132.76" height="546.23"/><rect class="cls-12" x="1354.29" y="1111.53" width="247.33" height="55.41"/><path class="cls-5" d="M1558,1141.48c.39-22.59,34-22.58,34.38,0C1592,1164.07,1558.42,1164.07,1558,1141.48Z"/><path class="cls-5" d="M1510.88,1141.48c.38-22.59,34-22.58,34.37,0C1544.87,1164.07,1511.26,1164.07,1510.88,1141.48Z"/><rect class="cls-11" x="1393.75" y="1118.1" width="10.75" height="44.02"/><rect class="cls-11" x="1377.59" y="1118.1" width="10.75" height="44.02"/><rect class="cls-11" x="1361.43" y="1118.1" width="10.75" height="44.02"/><rect class="cls-11" x="1441.9" y="1118.1" width="10.75" height="44.02"/><rect class="cls-11" x="1425.74" y="1118.1" width="10.75" height="44.02"/><rect class="cls-11" x="1409.58" y="1118.1" width="10.75" height="44.02"/><rect class="cls-11" x="1490.05" y="1118.1" width="10.75" height="44.02"/><rect class="cls-11" x="1473.89" y="1118.1" width="10.75" height="44.02"/><rect class="cls-11" x="1457.73" y="1118.1" width="10.75" height="44.02"/><rect class="cls-13" x="1361.43" y="1134.27" width="10.75" height="27.85"/><rect class="cls-13" x="1377.59" y="1142.77" width="10.75" height="19.35"/><rect class="cls-13" x="1393.75" y="1139.23" width="10.75" height="22.89"/><rect class="cls-13" x="1409.91" y="1142.77" width="10.75" height="19.35"/><rect class="cls-13" x="1425.74" y="1142.77" width="10.75" height="19.35"/><rect class="cls-13" x="1441.9" y="1131.09" width="10.75" height="31.03"/><rect class="cls-13" x="1457.73" y="1142.77" width="10.75" height="19.35"/><rect class="cls-13" x="1473.89" y="1142.77" width="10.75" height="19.35"/><rect class="cls-13" x="1490.05" y="1142.77" width="10.75" height="19.35"/><rect class="cls-12" x="1354.29" y="1193.47" width="247.33" height="55.41"/><path class="cls-5" d="M1558,1223.42c.39-22.59,34-22.59,34.38,0C1592,1246,1558.42,1246,1558,1223.42Z"/><path class="cls-5" d="M1510.88,1223.42c.38-22.59,34-22.59,34.37,0C1544.87,1246,1511.26,1246,1510.88,1223.42Z"/><rect class="cls-11" x="1393.75" y="1200.04" width="10.75" height="44.02"/><rect class="cls-11" x="1377.59" y="1200.04" width="10.75" height="44.02"/><rect class="cls-11" x="1361.43" y="1200.04" width="10.75" height="44.02"/><rect class="cls-11" x="1441.9" y="1200.04" width="10.75" height="44.02"/><rect class="cls-11" x="1425.74" y="1200.04" width="10.75" height="44.02"/><rect class="cls-11" x="1409.58" y="1200.04" width="10.75" height="44.02"/><rect class="cls-11" x="1490.05" y="1200.04" width="10.75" height="44.02"/><rect class="cls-11" x="1473.89" y="1200.04" width="10.75" height="44.02"/><rect class="cls-11" x="1457.73" y="1200.04" width="10.75" height="44.02"/><rect class="cls-13" x="1361.43" y="1236.08" width="10.75" height="7.98"/><rect class="cls-13" x="1377.59" y="1224.7" width="10.75" height="19.35"/><rect class="cls-13" x="1393.75" y="1221.17" width="10.75" height="22.89"/><rect class="cls-13" x="1409.58" y="1219.7" width="10.75" height="24.36"/><rect class="cls-13" x="1425.74" y="1224.7" width="10.75" height="19.35"/><rect class="cls-13" x="1441.9" y="1213.03" width="10.75" height="31.03"/><rect class="cls-13" x="1457.73" y="1224.7" width="10.75" height="19.35"/><rect class="cls-13" x="1473.89" y="1233.31" width="10.75" height="10.75"/><rect class="cls-13" x="1490.05" y="1224.7" width="10.75" height="19.35"/><rect class="cls-12" x="1354.29" y="1275.4" width="247.33" height="55.41"/><path class="cls-5" d="M1558,1305.36c.39-22.59,34-22.59,34.38,0C1592,1328,1558.42,1328,1558,1305.36Z"/><path class="cls-5" d="M1510.88,1305.36c.38-22.59,34-22.59,34.37,0C1544.87,1328,1511.26,1328,1510.88,1305.36Z"/><rect class="cls-11" x="1393.75" y="1281.98" width="10.75" height="44.02"/><rect class="cls-11" x="1377.59" y="1281.98" width="10.75" height="44.02"/><rect class="cls-11" x="1361.43" y="1281.98" width="10.75" height="44.02"/><rect class="cls-11" x="1441.9" y="1281.98" width="10.75" height="44.02"/><rect class="cls-11" x="1425.74" y="1281.98" width="10.75" height="44.02"/><rect class="cls-11" x="1409.58" y="1281.98" width="10.75" height="44.02"/><rect class="cls-11" x="1490.05" y="1281.98" width="10.75" height="44.02"/><rect class="cls-11" x="1473.89" y="1281.98" width="10.75" height="44.02"/><rect class="cls-11" x="1457.73" y="1281.98" width="10.75" height="44.02"/><rect class="cls-13" x="1361.43" y="1298.15" width="10.75" height="27.85"/><rect class="cls-13" x="1377.59" y="1306.64" width="10.75" height="19.35"/><rect class="cls-13" x="1393.75" y="1303.11" width="10.75" height="22.89"/><rect class="cls-11" x="1409.58" y="1288.53" width="10.75" height="37.47"/><rect class="cls-13" x="1425.74" y="1306.64" width="10.75" height="19.35"/><rect class="cls-13" x="1441.9" y="1300.13" width="10.75" height="25.87"/><rect class="cls-13" x="1457.73" y="1306.64" width="10.75" height="19.35"/><rect class="cls-13" x="1473.89" y="1306.64" width="10.75" height="19.35"/><rect class="cls-13" x="1490.05" y="1306.64" width="10.75" height="19.35"/><rect class="cls-12" x="1354.29" y="1357.34" width="247.33" height="55.41"/><path class="cls-5" d="M1558,1387.3c.39-22.59,34-22.59,34.38,0C1592,1409.89,1558.42,1409.89,1558,1387.3Z"/><path class="cls-5" d="M1510.88,1387.3c.38-22.59,34-22.59,34.37,0C1544.87,1409.89,1511.26,1409.89,1510.88,1387.3Z"/><rect class="cls-11" x="1393.75" y="1363.92" width="10.75" height="44.02"/><rect class="cls-11" x="1377.59" y="1363.92" width="10.75" height="44.02"/><rect class="cls-11" x="1361.43" y="1363.92" width="10.75" height="44.02"/><rect class="cls-11" x="1441.9" y="1363.92" width="10.75" height="44.02"/><rect class="cls-11" x="1425.74" y="1363.92" width="10.75" height="44.02"/><rect class="cls-11" x="1409.58" y="1363.92" width="10.75" height="44.02"/><rect class="cls-11" x="1490.05" y="1363.92" width="10.75" height="44.02"/><rect class="cls-11" x="1473.89" y="1363.92" width="10.75" height="44.02"/><rect class="cls-11" x="1457.73" y="1363.92" width="10.75" height="44.02"/><rect class="cls-13" x="1361.43" y="1380.09" width="10.75" height="27.85"/><rect class="cls-13" x="1377.59" y="1398.26" width="10.75" height="9.68"/><rect class="cls-13" x="1393.75" y="1397.19" width="10.75" height="10.75"/><rect class="cls-13" x="1409.58" y="1388.58" width="10.75" height="19.35"/><rect class="cls-13" x="1425.74" y="1388.58" width="10.75" height="19.35"/><rect class="cls-13" x="1441.9" y="1376.91" width="10.75" height="31.03"/><rect class="cls-13" x="1457.73" y="1396.49" width="10.75" height="11.44"/><rect class="cls-13" x="1473.89" y="1388.58" width="10.75" height="19.35"/><rect class="cls-13" x="1490.05" y="1388.58" width="10.75" height="19.35"/><rect class="cls-12" x="1354.29" y="1439.28" width="247.33" height="55.41"/><path class="cls-5" d="M1558,1469.24c.39-22.59,34-22.59,34.38,0C1592,1491.83,1558.42,1491.83,1558,1469.24Z"/><path class="cls-11" d="M1510.88,1469.24c.38-22.59,34-22.59,34.37,0C1544.87,1491.83,1511.26,1491.83,1510.88,1469.24Z"/><rect class="cls-11" x="1393.75" y="1445.86" width="10.75" height="44.02"/><rect class="cls-11" x="1377.59" y="1445.86" width="10.75" height="44.02"/><rect class="cls-11" x="1361.43" y="1445.86" width="10.75" height="44.02"/><rect class="cls-11" x="1441.9" y="1445.86" width="10.75" height="44.02"/><rect class="cls-11" x="1425.74" y="1445.86" width="10.75" height="44.02"/><rect class="cls-11" x="1409.58" y="1445.86" width="10.75" height="44.02"/><rect class="cls-11" x="1490.05" y="1445.86" width="10.75" height="44.02"/><rect class="cls-11" x="1473.89" y="1445.86" width="10.75" height="44.02"/><rect class="cls-11" x="1457.73" y="1445.86" width="10.75" height="44.02"/><rect class="cls-13" x="1361.43" y="1462.03" width="10.75" height="27.85"/><rect class="cls-13" x="1377.59" y="1470.52" width="10.75" height="19.35"/><rect class="cls-13" x="1393.75" y="1466.99" width="10.75" height="22.89"/><rect class="cls-13" x="1409.91" y="1470.52" width="10.75" height="19.35"/><rect class="cls-13" x="1425.74" y="1470.52" width="10.75" height="19.35"/><rect class="cls-13" x="1441.9" y="1458.85" width="10.75" height="31.03"/><rect class="cls-13" x="1457.73" y="1470.52" width="10.75" height="19.35"/><rect class="cls-13" x="1473.89" y="1470.52" width="10.75" height="19.35"/><rect class="cls-13" x="1490.05" y="1470.52" width="10.75" height="19.35"/><rect class="cls-12" x="1354.29" y="1516.07" width="68.65" height="11.54"/><rect class="cls-12" x="1354.29" y="1536.43" width="68.65" height="11.54"/><rect class="cls-12" x="1354.29" y="1556.79" width="68.65" height="11.54"/><rect class="cls-12" x="1443.63" y="1516.07" width="68.65" height="11.54"/><rect class="cls-12" x="1443.63" y="1536.43" width="68.65" height="11.54"/><rect class="cls-12" x="1443.63" y="1556.79" width="68.65" height="11.54"/><rect class="cls-12" x="1532.97" y="1516.07" width="68.65" height="11.54"/><rect class="cls-12" x="1532.97" y="1536.43" width="68.65" height="11.54"/><rect class="cls-12" x="1532.97" y="1556.79" width="68.65" height="11.54"/><rect class="cls-11" x="1665.99" y="1111.53" width="68.65" height="11.58"/><rect class="cls-11" x="1665.99" y="1131.96" width="68.65" height="11.58"/><rect class="cls-11" x="1665.99" y="1152.4" width="68.65" height="11.58"/><rect class="cls-11" x="1665.99" y="1194.21" width="68.65" height="11.58"/><rect class="cls-11" x="1665.99" y="1214.64" width="68.65" height="11.58"/><rect class="cls-11" x="1665.99" y="1235.08" width="68.65" height="11.58"/><rect class="cls-11" x="1665.99" y="1276.89" width="68.65" height="11.58"/><rect class="cls-11" x="1665.99" y="1297.32" width="68.65" height="11.58"/><rect class="cls-11" x="1665.99" y="1317.76" width="68.65" height="11.58"/><rect class="cls-11" x="1665.99" y="1358.83" width="68.65" height="11.58"/><rect class="cls-11" x="1665.99" y="1379.26" width="68.65" height="11.58"/><rect class="cls-11" x="1665.99" y="1399.7" width="68.65" height="11.58"/><rect class="cls-11" x="1665.99" y="1439.56" width="68.65" height="11.58"/><rect class="cls-11" x="1665.99" y="1460" width="68.65" height="11.58"/><rect class="cls-11" x="1665.99" y="1480.44" width="68.65" height="11.58"/><rect class="cls-11" x="1796.56" y="1072.49" width="311.96" height="546.23"/><rect class="cls-12" x="2108.52" y="1072.49" width="132.76" height="546.23"/><rect class="cls-12" x="1828.88" y="1111.53" width="247.33" height="55.41"/><path class="cls-5" d="M2032.62,1141.48c.39-22.59,34-22.58,34.38,0C2066.61,1164.07,2033,1164.07,2032.62,1141.48Z"/><path class="cls-5" d="M1985.46,1141.48c.39-22.59,34-22.58,34.38,0C2019.46,1164.07,1985.85,1164.07,1985.46,1141.48Z"/><rect class="cls-11" x="1868.33" y="1118.1" width="10.75" height="44.02"/><rect class="cls-11" x="1852.17" y="1118.1" width="10.75" height="44.02"/><rect class="cls-11" x="1836.01" y="1118.1" width="10.75" height="44.02"/><rect class="cls-11" x="1916.49" y="1118.1" width="10.75" height="44.02"/><rect class="cls-11" x="1900.33" y="1118.1" width="10.75" height="44.02"/><rect class="cls-11" x="1884.17" y="1118.1" width="10.75" height="44.02"/><rect class="cls-11" x="1964.64" y="1118.1" width="10.75" height="44.02"/><rect class="cls-11" x="1948.48" y="1118.1" width="10.75" height="44.02"/><rect class="cls-11" x="1932.32" y="1118.1" width="10.75" height="44.02"/><rect class="cls-13" x="1836.01" y="1134.27" width="10.75" height="27.85"/><rect class="cls-13" x="1852.17" y="1142.77" width="10.75" height="19.35"/><rect class="cls-13" x="1868.33" y="1139.23" width="10.75" height="22.89"/><rect class="cls-13" x="1884.49" y="1142.77" width="10.75" height="19.35"/><rect class="cls-13" x="1900.33" y="1142.77" width="10.75" height="19.35"/><rect class="cls-13" x="1916.49" y="1131.09" width="10.75" height="31.03"/><rect class="cls-13" x="1932.32" y="1142.77" width="10.75" height="19.35"/><rect class="cls-13" x="1948.48" y="1142.77" width="10.75" height="19.35"/><rect class="cls-13" x="1964.64" y="1142.77" width="10.75" height="19.35"/><rect class="cls-12" x="1828.88" y="1193.47" width="247.33" height="55.41"/><path class="cls-5" d="M2032.62,1223.42c.39-22.59,34-22.59,34.38,0C2066.61,1246,2033,1246,2032.62,1223.42Z"/><path class="cls-5" d="M1985.46,1223.42c.39-22.59,34-22.59,34.38,0C2019.46,1246,1985.85,1246,1985.46,1223.42Z"/><rect class="cls-11" x="1868.33" y="1200.04" width="10.75" height="44.02"/><rect class="cls-11" x="1852.17" y="1200.04" width="10.75" height="44.02"/><rect class="cls-11" x="1836.01" y="1200.04" width="10.75" height="44.02"/><rect class="cls-11" x="1916.49" y="1200.04" width="10.75" height="44.02"/><rect class="cls-11" x="1900.33" y="1200.04" width="10.75" height="44.02"/><rect class="cls-11" x="1884.17" y="1200.04" width="10.75" height="44.02"/><rect class="cls-11" x="1964.64" y="1200.04" width="10.75" height="44.02"/><rect class="cls-11" x="1948.48" y="1200.04" width="10.75" height="44.02"/><rect class="cls-11" x="1932.32" y="1200.04" width="10.75" height="44.02"/><rect class="cls-13" x="1836.01" y="1236.08" width="10.75" height="7.98"/><rect class="cls-13" x="1852.17" y="1224.7" width="10.75" height="19.35"/><rect class="cls-13" x="1868.33" y="1221.17" width="10.75" height="22.89"/><rect class="cls-13" x="1884.17" y="1219.7" width="10.75" height="24.36"/><rect class="cls-13" x="1900.33" y="1224.7" width="10.75" height="19.35"/><rect class="cls-13" x="1916.49" y="1213.03" width="10.75" height="31.03"/><rect class="cls-13" x="1932.32" y="1224.7" width="10.75" height="19.35"/><rect class="cls-13" x="1948.48" y="1233.31" width="10.75" height="10.75"/><rect class="cls-13" x="1964.64" y="1224.7" width="10.75" height="19.35"/><rect class="cls-12" x="1828.88" y="1275.4" width="247.33" height="55.41"/><path class="cls-5" d="M2032.62,1305.36c.39-22.59,34-22.59,34.38,0C2066.61,1328,2033,1328,2032.62,1305.36Z"/><path class="cls-5" d="M1985.46,1305.36c.39-22.59,34-22.59,34.38,0C2019.46,1328,1985.85,1328,1985.46,1305.36Z"/><rect class="cls-11" x="1868.33" y="1281.98" width="10.75" height="44.02"/><rect class="cls-11" x="1852.17" y="1281.98" width="10.75" height="44.02"/><rect class="cls-11" x="1836.01" y="1281.98" width="10.75" height="44.02"/><rect class="cls-11" x="1916.49" y="1281.98" width="10.75" height="44.02"/><rect class="cls-11" x="1900.33" y="1281.98" width="10.75" height="44.02"/><rect class="cls-11" x="1884.17" y="1281.98" width="10.75" height="44.02"/><rect class="cls-11" x="1964.64" y="1281.98" width="10.75" height="44.02"/><rect class="cls-11" x="1948.48" y="1281.98" width="10.75" height="44.02"/><rect class="cls-11" x="1932.32" y="1281.98" width="10.75" height="44.02"/><rect class="cls-13" x="1836.01" y="1298.15" width="10.75" height="27.85"/><rect class="cls-13" x="1852.17" y="1306.64" width="10.75" height="19.35"/><rect class="cls-13" x="1868.33" y="1303.11" width="10.75" height="22.89"/><rect class="cls-11" x="1884.17" y="1288.53" width="10.75" height="37.47"/><rect class="cls-13" x="1900.33" y="1306.64" width="10.75" height="19.35"/><rect class="cls-13" x="1916.49" y="1300.13" width="10.75" height="25.87"/><rect class="cls-13" x="1932.32" y="1306.64" width="10.75" height="19.35"/><rect class="cls-13" x="1948.48" y="1306.64" width="10.75" height="19.35"/><rect class="cls-13" x="1964.64" y="1306.64" width="10.75" height="19.35"/><rect class="cls-12" x="1828.88" y="1357.34" width="247.33" height="55.41"/><path class="cls-5" d="M2032.62,1387.3c.39-22.59,34-22.59,34.38,0C2066.61,1409.89,2033,1409.89,2032.62,1387.3Z"/><path class="cls-5" d="M1985.46,1387.3c.39-22.59,34-22.59,34.38,0C2019.46,1409.89,1985.85,1409.89,1985.46,1387.3Z"/><rect class="cls-11" x="1868.33" y="1363.92" width="10.75" height="44.02"/><rect class="cls-11" x="1852.17" y="1363.92" width="10.75" height="44.02"/><rect class="cls-11" x="1836.01" y="1363.92" width="10.75" height="44.02"/><rect class="cls-11" x="1916.49" y="1363.92" width="10.75" height="44.02"/><rect class="cls-11" x="1900.33" y="1363.92" width="10.75" height="44.02"/><rect class="cls-11" x="1884.17" y="1363.92" width="10.75" height="44.02"/><rect class="cls-11" x="1964.64" y="1363.92" width="10.75" height="44.02"/><rect class="cls-11" x="1948.48" y="1363.92" width="10.75" height="44.02"/><rect class="cls-11" x="1932.32" y="1363.92" width="10.75" height="44.02"/><rect class="cls-13" x="1836.01" y="1380.09" width="10.75" height="27.85"/><rect class="cls-13" x="1852.17" y="1398.26" width="10.75" height="9.68"/><rect class="cls-13" x="1868.33" y="1397.19" width="10.75" height="10.75"/><rect class="cls-13" x="1884.17" y="1388.58" width="10.75" height="19.35"/><rect class="cls-13" x="1900.33" y="1388.58" width="10.75" height="19.35"/><rect class="cls-13" x="1916.49" y="1376.91" width="10.75" height="31.03"/><rect class="cls-13" x="1932.32" y="1396.49" width="10.75" height="11.44"/><rect class="cls-13" x="1948.48" y="1388.58" width="10.75" height="19.35"/><rect class="cls-13" x="1964.64" y="1388.58" width="10.75" height="19.35"/><rect class="cls-12" x="1828.88" y="1439.28" width="247.33" height="55.41"/><path class="cls-5" d="M2032.62,1469.24c.39-22.59,34-22.59,34.38,0C2066.61,1491.83,2033,1491.83,2032.62,1469.24Z"/><path class="cls-11" d="M1985.46,1469.24c.39-22.59,34-22.59,34.38,0C2019.46,1491.83,1985.85,1491.83,1985.46,1469.24Z"/><rect class="cls-11" x="1868.33" y="1445.86" width="10.75" height="44.02"/><rect class="cls-11" x="1852.17" y="1445.86" width="10.75" height="44.02"/><rect class="cls-11" x="1836.01" y="1445.86" width="10.75" height="44.02"/><rect class="cls-11" x="1916.49" y="1445.86" width="10.75" height="44.02"/><rect class="cls-11" x="1900.33" y="1445.86" width="10.75" height="44.02"/><rect class="cls-11" x="1884.17" y="1445.86" width="10.75" height="44.02"/><rect class="cls-11" x="1964.64" y="1445.86" width="10.75" height="44.02"/><rect class="cls-11" x="1948.48" y="1445.86" width="10.75" height="44.02"/><rect class="cls-11" x="1932.32" y="1445.86" width="10.75" height="44.02"/><rect class="cls-13" x="1836.01" y="1462.03" width="10.75" height="27.85"/><rect class="cls-13" x="1852.17" y="1470.52" width="10.75" height="19.35"/><rect class="cls-13" x="1868.33" y="1466.99" width="10.75" height="22.89"/><rect class="cls-13" x="1884.49" y="1470.52" width="10.75" height="19.35"/><rect class="cls-13" x="1900.33" y="1470.52" width="10.75" height="19.35"/><rect class="cls-13" x="1916.49" y="1458.85" width="10.75" height="31.03"/><rect class="cls-13" x="1932.32" y="1470.52" width="10.75" height="19.35"/><rect class="cls-13" x="1948.48" y="1470.52" width="10.75" height="19.35"/><rect class="cls-13" x="1964.64" y="1470.52" width="10.75" height="19.35"/><rect class="cls-12" x="1828.88" y="1516.07" width="68.65" height="11.54"/><rect class="cls-12" x="1828.88" y="1536.43" width="68.65" height="11.54"/><rect class="cls-12" x="1828.88" y="1556.79" width="68.65" height="11.54"/><rect class="cls-12" x="1918.22" y="1516.07" width="68.65" height="11.54"/><rect class="cls-12" x="1918.22" y="1536.43" width="68.65" height="11.54"/><rect class="cls-12" x="1918.22" y="1556.79" width="68.65" height="11.54"/><rect class="cls-12" x="2007.56" y="1516.07" width="68.65" height="11.54"/><rect class="cls-12" x="2007.56" y="1536.43" width="68.65" height="11.54"/><rect class="cls-12" x="2007.56" y="1556.79" width="68.65" height="11.54"/><rect class="cls-11" x="2140.58" y="1111.53" width="68.65" height="11.58"/><rect class="cls-11" x="2140.58" y="1131.96" width="68.65" height="11.58"/><rect class="cls-11" x="2140.58" y="1152.4" width="68.65" height="11.58"/><rect class="cls-11" x="2140.58" y="1194.21" width="68.65" height="11.58"/><rect class="cls-11" x="2140.58" y="1214.64" width="68.65" height="11.58"/><rect class="cls-11" x="2140.58" y="1235.08" width="68.65" height="11.58"/><rect class="cls-11" x="2140.58" y="1276.89" width="68.65" height="11.58"/><rect class="cls-11" x="2140.58" y="1297.32" width="68.65" height="11.58"/><rect class="cls-11" x="2140.58" y="1317.76" width="68.65" height="11.58"/><rect class="cls-11" x="2140.58" y="1358.83" width="68.65" height="11.58"/><rect class="cls-11" x="2140.58" y="1379.26" width="68.65" height="11.58"/><rect class="cls-11" x="2140.58" y="1399.7" width="68.65" height="11.58"/><rect class="cls-11" x="2140.58" y="1439.56" width="68.65" height="11.58"/><rect class="cls-11" x="2140.58" y="1460" width="68.65" height="11.58"/><rect class="cls-11" x="2140.58" y="1480.44" width="68.65" height="11.58"/><rect class="cls-11" x="1255.23" y="1618.72" width="1067.86" height="162.71"/><rect class="cls-12" x="2041.88" y="1618.72" width="281.21" height="162.71"/><rect class="cls-12" x="1321.98" y="1617.48" width="719.91" height="2.48"/><path class="cls-12" d="M2458.73,1363.29c-3.05,19-46.84,189.53-43.14,204.44l5,161.48h48.42l23.34-156c-1.73-5.08,67.08-200.85,69.28-209.94Z"/><polygon class="cls-12" points="2605.1 1363.29 2632.19 1729.21 2583.77 1729.21 2491.15 1363.29 2605.1 1363.29"/><path class="cls-14" d="M2521.38,1482.75l-16.75-66.2s-19.89,92.63-1.45,120.17Z"/><path class="cls-2" d="M2375.93,1148c-26.09,3.52-134.9-23.36-161.9-29l-4.58,24c31.09,12.11,132.5,54.71,164.72,56.48Z"/><g class="cls-15"><polygon class="cls-16" points="2368.03 1143.52 2353.11 1205.78 2388.18 1206.24 2391.54 1143.54 2368.03 1143.52"/></g><path class="cls-5" d="M2646.64,1221l-88.94-68.65c-.83-.68-1.68-1.32-2.54-2h0c-13.39-10.64-32.24-13.32-49.47-12.59-14.87,4.54-112.17,4.37-129.55,4l-2.4,70,67.64,7.47,14.48,144h153.66l-21.1-110.3Z"/><g class="cls-17"><path class="cls-2" d="M2461.44,1137.82c13.33,42.82,79.45,54.61,96.72,5.57l-45.34-9.67Z"/><g class="cls-18"><path class="cls-16" d="M2468.13,1137.82s10.49,36,54.87,39c-24.11,5.21-61.29-8.12-68.86-38l14-1"/></g><path class="cls-19" d="M2374.17,1199.51s41.53,8.34,95.75,0c48.34,116.51,14.51,97.77,137.32,135.69,0,0,8.71,34.82,5.15,33.63s-172.6-.79-172.6-.79l-7.46-146L2369,1211l5.16-11.45"/></g><path class="cls-12" d="M2642.64,1304.65H2484.75l17.27-95.54a8.42,8.42,0,0,1,8.28-6.91h145.87a4.16,4.16,0,0,1,4.1,4.9Z"/><path class="cls-11" d="M2638.25,1315.5c-2-2-245.79,3.78-245.34-2,.61-1.82-1.54-9,2-8.82h247.7C2641.74,1307.16,2642.62,1315.79,2638.25,1315.5Z"/><path class="cls-11" d="M2586.35,1259.89c-6.81,19.54-25.28,13.18-18.63-6.4C2574.52,1234,2593,1240.3,2586.35,1259.89Z"/><path class="cls-5" d="M2417.24,1413.61h-217a12.88,12.88,0,0,1-12.87-12.87V1117.08c7.71-9.63.45,284.12,2.86,283.66a10,10,0,0,0,10,10h217a10,10,0,0,0,10-10v-89.86a1.43,1.43,0,0,1,2.86,0v89.86A12.88,12.88,0,0,1,2417.24,1413.61Z"/><path class="cls-2" d="M2585,1315.59c13.94-12.15,13.95-12.57,35.55-11.46,6,.65-4.24,13.59-6.87,14.67-3,2-6.86,4.2-9.26,4-4.39-.31-31.86-7.24-30.64-7.24Z"/><path class="cls-2" d="M2459.33,1054.06l-16,49a14.91,14.91,0,0,0,12.14,19.39l25.36,3.5,5.17,34.6,39.3-2.33-25.52-104.14Z"/><g class="cls-20"><path class="cls-16" d="M2442.61,1115.09a82.75,82.75,0,0,0,42.24-2.17s-4.9,8.52-3.52,15.35h0S2445.72,1127.4,2442.61,1115.09Z"/><path class="cls-16" d="M2446.51,1070.3c.83.4,16.07,16.19,56.82,3.44l-46.57-24.94Z"/></g><path class="cls-2" d="M2432.44,1729.21v15.61s5,15.29,16,15.29,11.51-3.41,11.51-3.41l2.51-27.49Z"/><g class="cls-21"><path class="cls-16" d="M2464.45,1743.5s-27.91-3.81-35.33-10.7l-.35-6.61,36.2.79Z"/></g><path class="cls-6" d="M2460,1756.7s-22.94,5.88-27.7-13.2l-44.94,21.31a16.91,16.91,0,0,0-9.58,16.92h0l78.66-1.06C2467.55,1780.39,2460,1762.62,2460,1756.7Z"/><path class="cls-2" d="M2591.81,1729.21c5,7.46,9.78,30.8,23.55,30.9,11.06,0,11.52-3.41,11.52-3.41l-5-27.49Z"/><g class="cls-22"><path class="cls-16" d="M2624.9,1743.5s-27.91-3.81-35.33-10.7l-.35-6.61,36.2.79Z"/></g><path class="cls-6" d="M2626.88,1756.7s-22.94,5.88-27.7-13.2l-44.94,21.31a16.9,16.9,0,0,0-9.58,16.92h0l78.65-1.06C2634.45,1780.39,2626.87,1762.62,2626.88,1756.7Z"/><path class="cls-2" d="M2217.8,1119.89c-4.45-2.69-13.91-16-20.22-12.77-.2.8-30.12,10.45-27.45,12.43a6.44,6.44,0,0,0,7.06,3.75l17.33-3.59,3.47,21.65,14.85,2.16Z"/><polygon class="cls-16" points="2176.75 1120.77 2185.32 1143.52 2199.33 1140.8 2195.22 1117.08 2176.75 1120.77"/><path class="cls-12" d="M2459.1,1059.2s30.19,10.46,30.85,10.46c-1.88,6.51-6.89,16.81,1.87,23.33l4.13-10.26s12.8,13.33,0,20l19.29,16.34c15.23-18.5,11.42-34.39,10-56.2-.56-14.53-14.14-22.84-26.72-26.59l-48.35-14.74S2434.37,1053.54,2459.1,1059.2Z"/><path class="cls-4" d="M1741.09,1221.71c-30.62,6.47-58.43-26.57-46.7-55.63L1810,848.31c9.71-29.75,52.22-37.31,71.54-12.62l217.43,259c20.91,23.28,6.2,63.87-24.84,68.25Z"/><path class="cls-10" d="M1830.46,855.75c-148.31,447.4-225.44,353.76,239.9,285.77a20.18,20.18,0,0,0,11.95-32.84l-217.43-259A20.18,20.18,0,0,0,1830.46,855.75Z"/><path class="cls-7" d="M1873.4,1102.14c19.48-27.73,61.42,1.47,42.41,29.27C1895.78,1158.57,1854.56,1130.66,1873.4,1102.14Zm-46.1-160.21,70.06-12.36,16,140.86-52.29,9.23Z"/><path class="cls-7" d="M2028.13,751.38H1676.22c9.55-20.27,27.8-31.31,50.2-30.7,8-67.6,102.45-83.77,132.47-22.71,21.39-9.44,49.62,3.45,56.48,25.8C1950.22,683.12,2014.11,700.67,2028.13,751.38Z"/><path class="cls-7" d="M1625.82,644.63h-236c-.24-20.53,21.43-29.3,39.1-29.85,3.19-.24,6.58-.44,9.16-2.31,34.5-64.31,130.17-54.46,145.17,18.69a28.62,28.62,0,0,1,30.5-10.49C1624.73,623.9,1625.24,633.19,1625.82,644.63Z"/><path class="cls-10" d="M2236.7,897.14c-1.67,97.77-147.12,97.75-148.78,0C2089.59,799.36,2235.05,799.38,2236.7,897.14Z"/><path class="cls-1" d="M2183.4,964.2a1.38,1.38,0,0,1-1.38-1.39v-42.9h-41.34v42.9a1.39,1.39,0,1,1-2.77,0v-42.9H2114.3a1.4,1.4,0,0,1-1.17-2.14l25-38.72a1.39,1.39,0,0,1,2.55.75v37.34H2182V879.8a1.4,1.4,0,0,1,2.6-.67L2206,917.85a1.39,1.39,0,0,1,0,1.38c.4,1.43-20.66.37-21.18.68v42.9A1.39,1.39,0,0,1,2183.4,964.2Zm1.39-47.06h17.64l-17.64-31.95Zm-67.95,0h21.07V884.51Z"/><path class="cls-12" d="M2178,1006.81c-45.25.05-50.48,5.37-48.52-44.23h65.63C2194.2,977.3,2201,1006.41,2178,1006.81Z"/><rect class="cls-11" x="2129.5" y="968.76" width="65.63" height="6.17"/><rect class="cls-11" x="2129.5" y="979.47" width="65.63" height="6.17"/><path class="cls-10" d="M2246.69,946.81l-12-7c.88-1.49,1.72-3,2.51-4.56l12.36,6.29C2248.7,943.29,2247.71,945.08,2246.69,946.81ZM2077,945.12c-1-1.76-1.94-3.57-2.82-5.38l12.49-6c.75,1.56,1.56,3.11,2.41,4.62Zm182.79-38.42-13.81-1.34c.17-1.72.29-3.47.35-5.21l13.86.49C2260.08,902.66,2260,904.7,2259.75,906.7Zm-195.05-1.94c-.16-2-.25-4-.28-6.06l13.87-.22c0,1.73.11,3.49.24,5.21Zm177-35.35c-.57-1.62-1.2-3.26-1.87-4.85l12.79-5.38c.78,1.85,1.52,3.76,2.18,5.66Zm-158.13-1.57-13-4.84c.7-1.9,1.48-3.79,2.3-5.63L2085.5,863C2084.8,864.59,2084.13,866.21,2083.53,867.84Zm139.11-29.19c-1.21-1.24-2.46-2.46-3.74-3.63l9.34-10.25c1.49,1.36,3,2.78,4.36,4.22Zm-119.45-1.22-9.76-9.86c1.43-1.41,2.92-2.8,4.44-4.13l9.14,10.44C2105.7,835,2104.42,836.21,2103.19,837.43Zm89.25-18.75c-1.62-.62-3.27-1.2-4.93-1.72l4.16-13.23c1.93.6,3.86,1.28,5.75,2Zm-58.68-.59L2129.05,805c1.9-.68,3.84-1.32,5.77-1.88l3.89,13.31C2137.05,817,2135.39,817.5,2133.76,818.09Z"/><path class="cls-5" d="M809.46,1203.18l-97.39-42.56h0a65.24,65.24,0,0,0-27.81-6.21c-30.29-2.1-63.85,1.73-80.5,29.67h0l-65.51,84.62,50.22,35.7-5,91.75H761l-8.7-135.76,32,11.83Z"/><g class="cls-23"><path class="cls-2" d="M623.25,1157.81c20.66,21,74.42,34.79,95.31-1.81l-41.4-10.19L649,1147.58Z"/><polygon class="cls-19" points="796.43 1259.38 735.28 1213.29 702.96 1394.56 780.52 1391.41 764.37 1280.18 796.43 1292.46 796.43 1259.38"/><path class="cls-19" d="M567.4,1294.85,612.14,1209s6,194.9,4.8,194.9-45.94-2.4-45.94-2.4Z"/></g><path class="cls-6" d="M794.62,1539.1l-52.2-143h5.78l-21.25-236L708.3,1156l.3,76.35-72.72-2.4-3.47-73.13-18.74,5-18,234.33h0L489,1569.69l-60.7,162.63H483.6l82.87-125.79,107.45-117.09,31.28,59.89-37,183H732C733.3,1721.11,807.08,1545.58,794.62,1539.1Z"/><g class="cls-24"><path class="cls-14" d="M595.69,1396.16s51.09,102,186,96.11L761,1396.16,590.8,1361.79l4.89,34.37"/><path class="cls-14" d="M630.55,1246.54c.15,10.27-16,10.27-15.83,0C614.57,1236.28,630.7,1236.28,630.55,1246.54Z"/><path class="cls-14" d="M721.49,1247.78c.15,10.27-16,10.27-15.83,0C705.51,1237.51,721.64,1237.51,721.49,1247.78Z"/><path class="cls-14" d="M726.09,1349.66l-114.82-6.85,9-70.45,99.25,2ZM613.45,1341,724,1347.6l-6.25-71.36-95.79-1.91Z"/></g><path class="cls-3" d="M1124.92,1121.75,688.5,971.7a55,55,0,0,1-34.14-69.91l145-421.64A55,55,0,0,1,869.3,446l436.43,150.06a55,55,0,0,1,34.14,69.9l-145,421.64A55,55,0,0,1,1124.92,1121.75Z"/><g class="cls-25"><path class="cls-10" d="M1167,1149,730.55,999a55,55,0,0,1-34.14-69.91l145-421.64a55,55,0,0,1,69.92-34.13l436.43,150.06a55,55,0,0,1,34.13,69.91l-145,421.64A55,55,0,0,1,1167,1149Z"/></g><path class="cls-4" d="M974.79,758.82l50.61,17.41,154.23-157.69a15.05,15.05,0,0,0-7.75-25.27C956.29,544.41,978.48,549.73,974.79,758.82Zm24.84,27.3L841.92,631.92a15.05,15.05,0,0,0-25.27,7.75C767.78,855.22,773.1,833,982.23,836.73Zm60.52,43.17-50.62-17.4L855.3,969.57a15.05,15.05,0,0,0,7.75,25.27C1078.64,1043.7,1056.45,1038.38,1060.15,829.29Zm158.13,119.15c48.92-215.69,43.42-193.32-165.58-197.06L1035.3,802,1193,956.19A15.05,15.05,0,0,0,1218.28,948.44Z"/><g class="cls-26"><path class="cls-27" d="M1108.05,826.28C1071.27,927.56,919.71,875.43,953,773,989.8,671.69,1141.36,723.82,1108.05,826.28Z"/></g><path class="cls-3" d="M1082.15,816.3c-30.69,84.51-157.16,41-129.36-44.49C983.48,687.31,1109.94,730.8,1082.15,816.3Z"/><rect class="cls-3" x="802.91" y="1033.14" width="68.4" height="360.28" transform="translate(439.99 -206.26) rotate(18.97)"/><path class="cls-4" d="M916.66,1486.35l-311-106.95c9.46-20.57,13.23-71.81,47.77-60.57l262.87,90.38C950.42,1421.68,921.87,1464.25,916.66,1486.35Z"/><path class="cls-2" d="M702.4,1412.68s14.31-5.77,14.31-7.55-30.9-2.34-30.9-2.34C657.68,1374,577.11,1289.15,542,1271.34l-9.39,13.85c-13.18,18.61-7.26,46.61,12.35,58.27,17.57,9.72,129.55,84.91,147.88,86.36,5.85,1.52,36.49-7.9,36.49-7.9Z"/><g class="cls-28"><path class="cls-16" d="M516.46,1289s46,27,80.26,17.6l-58.47-50.31Z"/></g><path class="cls-2" d="M875.48,1242.66l-10.11-6.4-88.08,98.91s-29.67,11.6-26.25,12.43,13,3.06,13,3.06l-5.85,7.23-16.25,7.62a2,2,0,0,0,.22,3.65l19.79,6.56a25.72,25.72,0,0,0,18-.69c8.19-2.59,17-16.72,22.46-22.76l74.93-55.08C895.89,1284.34,894.9,1254.2,875.48,1242.66Z"/><path class="cls-6" d="M711.39,1069.29s13.58,33-11.54,58.86l-3.45-58.86Z"/><path class="cls-2" d="M711.45,1084.87c-1.3,0-2.51,1-3.51,2.69-7.86-49.24-67.16-49.21-75,0-5.45-7.69-9.68,2.53-9.69,12.32-.14,10.61,5.25,20.95,10.35,11,3.07,13.12,10.57,23.91,20.36,29.7v21.23h33.58v-21.62c9.48-5.87,16.73-16.46,19.74-29.29C717.82,1128,721.63,1084.69,711.45,1084.87Z"/><g class="cls-29"><path class="cls-16" d="M635.54,1094.44l26.53-23.74s6.56,8.28,32.95,11.39l-4-4.31s5.79,3.24,17.9-2.09h0l-30.32-20.16-29,.86-14.12,38"/><path class="cls-16" d="M654,1140.6s18.18,5.06,33.58-.39h0s-17.68,11.93-36.59,11.93l3-11.54"/></g><path class="cls-6" d="M635.54,1094.44c5.1-7.16,17.49-24.35,25.11-33.14,0,0,11.2,13,32.44,15l-13.25-11.45s20.49,13.41,38.72,10.84c-6.09-50.57-99.76-58.54-92.18,11.18C628.28,1088.67,631.68,1099.12,635.54,1094.44Z"/><path class="cls-7" d="M660.94,1124.69s13.78-11.84,20.69-9.12S660.94,1124.69,660.94,1124.69Z"/><path class="cls-2" d="M444.83,1732.32l-4.29,12.5s5,15.29,16,15.29,11.51-3.41,11.51-3.41l10.19-24.38Z"/><g class="cls-30"><path class="cls-16" d="M478.27,1745.23s-33.63-5.54-41-12.43l-.35-6.61,48.06,4.12Z"/></g><path class="cls-6" d="M468.08,1756.7s-22.94,5.88-27.7-13.2l-44.94,21.31a16.9,16.9,0,0,0-9.58,16.92h0l78.65-1.06C475.65,1780.39,468.07,1762.62,468.08,1756.7Z"/><path class="cls-2" d="M707.49,1732.32c-4.24,7.4-5.83,26.13-21.07,27.79-11,0-11.51-3.41-11.51-3.41l3.38-24.38Z"/><g class="cls-31"><path class="cls-16" d="M664.71,1745.23s37.86-6,45.28-12.91l-3.87-6.13-48.06,4.12Z"/></g><path class="cls-6" d="M674.91,1756.7s22.94,5.88,27.7-13.2l44.94,21.31a16.91,16.91,0,0,1,9.58,16.92l-78.66-1.06C667.34,1780.39,674.92,1762.62,674.91,1756.7Z"/><path class="cls-7" d="M1468.49,1044h-7.73c-.41-22.75,18.76-22.92,19.31-43.54-.55-20.61-19.72-20.79-19.31-43.53-.41-22.74,18.76-22.92,19.31-43.54-.55-20.61-19.72-20.79-19.31-43.54-.41-22.74,18.76-22.92,19.31-43.54h7.73c.41,22.76-18.76,22.92-19.32,43.54.56,20.62,19.73,20.8,19.32,43.54.41,22.75-18.76,22.92-19.32,43.54.56,20.61,19.73,20.79,19.32,43.53C1488.21,1023.24,1469,1023.43,1468.49,1044Z"/><path class="cls-7" d="M1522.27,1044h-7.72c-.42-22.75,18.76-22.92,19.31-43.54-.55-20.61-19.73-20.79-19.31-43.53-.42-22.74,18.76-22.92,19.31-43.54-.55-20.61-19.73-20.79-19.31-43.54-.42-22.74,18.76-22.92,19.31-43.54h7.73c.41,22.76-18.76,22.92-19.32,43.54.56,20.62,19.73,20.8,19.31,43.54.42,22.75-18.75,22.92-19.31,43.54.56,20.61,19.73,20.79,19.31,43.53C1542,1023.24,1522.83,1023.43,1522.27,1044Z"/><path class="cls-7" d="M1576.06,1044h-7.73c-.41-22.75,18.76-22.92,19.32-43.54-.56-20.61-19.73-20.79-19.32-43.53-.41-22.74,18.76-22.92,19.32-43.54-.56-20.61-19.73-20.79-19.32-43.54-.41-22.74,18.76-22.92,19.32-43.54h7.72c.41,22.76-18.76,22.92-19.31,43.54.55,20.62,19.73,20.8,19.31,43.54.41,22.75-18.76,22.92-19.31,43.54.55,20.61,19.73,20.79,19.31,43.53C1595.78,1023.24,1576.61,1023.43,1576.06,1044Z"/><path class="cls-6" d="M2746.36,1786c-4.61-4.58-2509.54,8.78-2508.54-4.58C231.62,1776.8,2774.63,1764.37,2746.36,1786Z"/><text class="cls-32" transform="translate(567.33 238.79)">SORRY...SOMETHING WENT WRONG</text></svg>